<?xml version="1.0" encoding="utf-8"?>
<!-- Generator: Adobe Illustrator 16.0.0, SVG Export Plug-In . SVG Version: 6.00 Build 0)  -->
<!DOCTYPE svg PUBLIC "-//W3C//DTD SVG 1.1//EN" "http://www.w3.org/Graphics/SVG/1.1/DTD/svg11.dtd">
<svg version="1.1" id="Layer_1" xmlns="http://www.w3.org/2000/svg" xmlns:xlink="http://www.w3.org/1999/xlink" x="0px" y="0px"
	 width="400px" height="70px" viewBox="0 0 400 70" enable-background="new 0 0 400 70" xml:space="preserve">
<g>
	<defs>
		<rect id="SVGID_1_" x="-760" y="-505" width="1920" height="1080"/>
	</defs>
	<clipPath id="SVGID_2_">
		<use xlink:href="#SVGID_1_"  overflow="visible"/>
	</clipPath>
	<g clip-path="url(#SVGID_2_)">
		<defs>
			<rect id="SVGID_3_" x="-760" y="-505" width="1920" height="1080"/>
		</defs>
		<clipPath id="SVGID_4_">
			<use xlink:href="#SVGID_3_"  overflow="visible"/>
		</clipPath>
		<path clip-path="url(#SVGID_4_)" fill="#FFFFFF" d="M-50.926-372.544c-1.602-0.973-3.759-1.884-6.475-2.716
			c-2.715-0.836-5.638-1.25-8.772-1.25c-3.068,0-6.03,0.502-8.882,1.514c-2.852,1.004-5.374,2.469-7.571,4.385
			c-2.192,1.914-3.957,4.277-5.273,7.103c-1.325,2.817-1.985,6.074-1.985,9.763c0,3.622,0.66,6.844,1.985,9.661
			c1.316,2.821,3.081,5.207,5.273,7.157c2.197,1.954,4.754,3.433,7.681,4.441c2.918,1.008,5.986,1.515,9.19,1.515
			c3.341,0,6.281-0.3,8.829-0.89c2.536-0.594,4.75-1.408,6.625-2.46l-1.149,11.597c-1.946,0.979-4.173,1.691-6.686,2.145
			c-2.504,0.453-5.673,0.678-9.503,0.678c-4.243,0-8.481-0.717-12.689-2.139c-4.217-1.43-8.007-3.57-11.387-6.426
			c-3.375-2.852-6.131-6.404-8.249-10.652c-2.125-4.252-3.186-9.195-3.186-14.833c0-5.638,1.061-10.581,3.186-14.833
			c2.118-4.243,4.886-7.813,8.302-10.705c3.411-2.887,7.227-5.052,11.44-6.479c4.212-1.426,8.406-2.139,12.583-2.139
			c4.393,0,8.165,0.401,11.33,1.202c3.169,0.801,5.766,1.791,7.786,2.975L-50.926-372.544z"/>
		<polygon clip-path="url(#SVGID_4_)" fill="#FFFFFF" points="-38.704,-320.633 -38.704,-387.272 -25.542,-387.272 
			-25.542,-331.606 1.715,-331.606 1.715,-320.633 		"/>
		<rect x="9.449" y="-387.272" clip-path="url(#SVGID_4_)" fill="#FFFFFF" width="13.156" height="66.639"/>
		<path clip-path="url(#SVGID_4_)" fill="#FFFFFF" d="M99.064-320.633l-2.403-27.368c-0.142-2.016-0.3-4.23-0.471-6.629
			c-0.176-2.403-0.295-4.754-0.366-7.051h-0.211c-0.902,2.232-1.968,4.613-3.182,7.152c-1.219,2.544-2.35,4.824-3.394,6.845
			l-13.997,27.47h-5.123l-14.199-27.47c-1.048-2.021-2.144-4.27-3.293-6.739c-1.148-2.474-2.214-4.854-3.186-7.157h-0.207
			c-0.071,2.368-0.189,4.754-0.366,7.157c-0.171,2.403-0.334,4.542-0.475,6.422l-2.399,27.368H33.781l5.743-66.639h9.821
			l16.188,31.124c1.184,2.302,2.487,4.88,3.918,7.733c1.425,2.852,2.623,5.497,3.6,7.936h0.216c0.968-2.368,2.121-4.956,3.446-7.782
			c1.321-2.821,2.61-5.449,3.86-7.887l15.876-31.124h9.406l5.951,66.639H99.064z"/>
		<path clip-path="url(#SVGID_4_)" fill="#FFFFFF" d="M166.223-320.633l-6.369-16.088H136.35l-6.369,16.088h-12.642l27.369-67.374
			h7.417l27.263,67.374H166.223z M150.562-361.369c-0.352-0.977-0.757-2.108-1.206-3.398c-0.458-1.281-0.858-2.557-1.197-3.807
			h-0.212c-0.347,1.25-0.748,2.526-1.201,3.807c-0.453,1.29-0.858,2.421-1.202,3.398l-5.537,14.31h16.088L150.562-361.369z"/>
		<polygon clip-path="url(#SVGID_4_)" fill="#FFFFFF" points="207.376,-376.308 207.376,-320.634 194.216,-320.634 
			194.216,-376.308 173.956,-376.308 173.956,-387.271 227.641,-387.271 227.641,-376.308 		"/>
		<polygon clip-path="url(#SVGID_4_)" fill="#FFFFFF" points="234.327,-320.633 234.327,-387.272 271.506,-387.272 
			271.506,-376.307 247.377,-376.307 247.377,-359.591 267.434,-359.591 267.434,-348.521 247.377,-348.521 247.377,-331.606 
			274.852,-331.606 274.852,-320.633 		"/>
		<polygon clip-path="url(#SVGID_4_)" fill="#FFFFFF" points="348.594,-320.633 348.594,-348.415 318.515,-348.415 
			318.515,-320.633 305.35,-320.633 305.35,-387.272 318.515,-387.272 318.515,-359.7 348.594,-359.7 348.594,-387.272 
			361.755,-387.272 361.755,-320.633 		"/>
		<path clip-path="url(#SVGID_4_)" fill="#F59224" d="M442.809-354.058c0,5.365-1.008,10.202-3.028,14.52
			c-2.024,4.314-4.688,7.971-7.993,10.968c-3.306,2.994-7.1,5.291-11.387,6.89c-4.282,1.601-8.684,2.403-13.213,2.403
			c-4.525,0-8.927-0.802-13.214-2.403c-4.278-1.599-8.077-3.896-11.382-6.89c-3.306-2.997-5.969-6.654-7.994-10.968
			c-2.02-4.318-3.027-9.155-3.027-14.52c0-5.357,1.008-10.186,3.027-14.468c2.025-4.283,4.688-7.919,7.994-10.911
			c3.305-2.994,7.104-5.291,11.382-6.898c4.287-1.597,8.688-2.403,13.214-2.403c4.529,0,8.931,0.806,13.213,2.403
			c4.287,1.607,8.081,3.904,11.387,6.898c3.306,2.992,5.969,6.628,7.993,10.911C441.801-364.244,442.809-359.415,442.809-354.058
			 M429.437-353.847c0-3.622-0.642-6.857-1.933-9.719c-1.285-2.852-2.975-5.272-5.064-7.258c-2.092-1.985-4.455-3.517-7.1-4.595
			c-2.65-1.078-5.367-1.619-8.152-1.619c-2.781,0-5.52,0.527-8.2,1.566c-2.681,1.043-5.067,2.558-7.148,4.547
			c-2.091,1.985-3.768,4.419-5.018,7.307c-1.25,2.892-1.88,6.149-1.88,9.771c0,3.618,0.63,6.857,1.88,9.714
			c1.25,2.852,2.927,5.29,5.018,7.311c2.081,2.02,4.468,3.565,7.148,4.648c2.681,1.078,5.419,1.62,8.2,1.62
			c2.72,0,5.414-0.542,8.095-1.62c2.679-1.083,5.065-2.615,7.157-4.6c2.09-1.981,3.779-4.419,5.064-7.31
			C428.795-346.972,429.437-350.229,429.437-353.847"/>
		<path clip-path="url(#SVGID_4_)" fill="#FFFFFF" d="M515.61-320.633l-2.403-27.368c-0.141-2.016-0.295-4.23-0.472-6.629
			c-0.173-2.403-0.295-4.754-0.36-7.051h-0.207c-0.912,2.232-1.977,4.613-3.191,7.152c-1.215,2.544-2.351,4.824-3.394,6.845
			l-14.001,27.47h-5.115l-14.207-27.47c-1.045-2.021-2.14-4.27-3.293-6.739c-1.141-2.474-2.205-4.854-3.182-7.157h-0.207
			c-0.07,2.368-0.195,4.754-0.365,7.157c-0.177,2.403-0.33,4.542-0.472,6.422l-2.403,27.368H450.33l5.744-66.639h9.816
			l16.188,31.124c1.184,2.302,2.491,4.88,3.917,7.733c1.426,2.852,2.628,5.497,3.605,7.936h0.211
			c0.969-2.368,2.121-4.956,3.441-7.782c1.33-2.821,2.619-5.449,3.869-7.887L513-387.272h9.4l5.951,66.639H515.61z"/>
		<polygon clip-path="url(#SVGID_4_)" fill="#FFFFFF" points="538.383,-320.633 538.383,-387.272 575.566,-387.272 
			575.566,-376.307 551.438,-376.307 551.438,-359.591 571.496,-359.591 571.496,-348.521 551.438,-348.521 551.438,-331.606 
			578.908,-331.606 578.908,-320.633 		"/>
		<path clip-path="url(#SVGID_4_)" fill="#F59224" d="M-183.54-355.167c0-13.196,10.696-23.896,23.896-23.896
			c13.2,0,23.896,10.7,23.896,23.896c0,13.2-10.696,23.896-23.896,23.896C-172.844-331.271-183.54-341.967-183.54-355.167"/>
		<g opacity="0.8" clip-path="url(#SVGID_4_)">
			<g>
				<defs>
					<rect id="SVGID_5_" x="-208.232" y="-403.752" width="55.001" height="97.177"/>
				</defs>
				<clipPath id="SVGID_6_">
					<use xlink:href="#SVGID_5_"  overflow="visible"/>
				</clipPath>
				<path clip-path="url(#SVGID_6_)" fill="#FFFFFF" d="M-159.644-403.751c-26.836,0-48.589,21.749-48.589,48.585
					c0,26.835,21.753,48.592,48.589,48.592c0,0,6.413-22.725,6.413-48.592C-153.23-381.04-159.644-403.751-159.644-403.751"/>
			</g>
		</g>
		<g opacity="0.6" clip-path="url(#SVGID_4_)">
			<g>
				<defs>
					<rect id="SVGID_7_" x="-232.59" y="-428.1" width="72.946" height="145.875"/>
				</defs>
				<clipPath id="SVGID_8_">
					<use xlink:href="#SVGID_7_"  overflow="visible"/>
				</clipPath>
				<path clip-path="url(#SVGID_8_)" fill="#FFFFFF" d="M-159.644-428.104c-40.287,0-72.946,32.654-72.946,72.938
					c0,40.287,32.659,72.941,72.946,72.941c0,0-24.314-24.979-23.896-73.083C-183.118-403.413-159.644-428.104-159.644-428.104"/>
			</g>
		</g>
		<g opacity="0.4" clip-path="url(#SVGID_4_)">
			<g>
				<defs>
					<rect id="SVGID_9_" x="-256.283" y="-451.81" width="96.639" height="193.282"/>
				</defs>
				<clipPath id="SVGID_10_">
					<use xlink:href="#SVGID_9_"  overflow="visible"/>
				</clipPath>
				<path clip-path="url(#SVGID_10_)" fill="#FFFFFF" d="M-159.644-451.807c-53.372,0-96.64,43.271-96.64,96.64
					c0,53.377,43.268,96.639,96.64,96.639c0,0-48.359-41.968-48.315-96.639C-207.924-409.837-159.644-451.807-159.644-451.807"/>
			</g>
		</g>
		<path clip-path="url(#SVGID_4_)" fill="#FFFFFF" d="M615.175-320.1v-64.792h14.805l18.745,27.878
			c4.999,7.594,8.94,14.804,12.209,22.109l0.288-0.095c-0.961-8.652-1.058-16.535-1.058-25.86v-24.032h11.535v64.792h-13.17
			l-18.938-28.839c-4.71-7.499-9.518-15.381-13.073-22.88l-0.385,0.097c0.479,8.651,0.577,17.015,0.577,26.724v24.898H615.175z"/>
		<polygon clip-path="url(#SVGID_4_)" fill="#FFFFFF" points="725.826,-348.555 698.43,-348.555 698.43,-330.098 728.999,-330.098 
			728.999,-320.1 686.028,-320.1 686.028,-384.892 727.461,-384.892 727.461,-374.895 698.43,-374.895 698.43,-358.552 
			725.826,-358.552 		"/>
		<path clip-path="url(#SVGID_4_)" fill="#FFFFFF" d="M752.264-320.1l-17.207-64.792h13.266l6.826,29.801
			c1.826,7.978,3.557,16.534,4.71,22.397h0.192c1.152-6.343,2.979-14.323,5.095-22.59l7.498-29.608h13.843l6.825,30.474
			c1.635,7.69,3.076,14.996,4.134,21.436h0.192c1.153-6.633,2.979-14.131,4.902-22.206l7.595-29.704h12.689L803.502-320.1H790.14
			l-7.306-32.107c-1.73-7.595-2.98-13.363-3.846-20.188h-0.192c-1.058,6.729-2.403,12.593-4.518,20.188l-8.268,32.107H752.264z"/>
		<path clip-path="url(#SVGID_4_)" fill="#FFFFFF" d="M830.617-333.654c4.229,2.403,10.574,4.614,17.495,4.614
			c7.979,0,12.401-3.461,12.401-8.748c0-4.806-3.269-7.69-12.401-10.382c-11.92-3.556-19.322-9.036-19.322-19.13
			c0-10.766,9.517-18.745,24.226-18.745c7.979,0,13.554,1.634,17.495,3.46l-3.172,9.806c-2.596-1.25-7.69-3.364-14.612-3.364
			c-8.074,0-11.343,4.037-11.343,7.786c0,4.999,4.134,7.306,13.458,10.286c12.209,3.941,18.361,9.421,18.361,19.515
			c0,9.997-7.691,19.61-26.149,19.61c-7.497,0-15.283-2.115-19.32-4.614L830.617-333.654z"/>
	</g>
</g>
<g>
	<defs>
		<rect id="SVGID_11_" x="-760" y="-505" width="1920" height="1080"/>
	</defs>
	<clipPath id="SVGID_12_">
		<use xlink:href="#SVGID_11_"  overflow="visible"/>
	</clipPath>
	<g clip-path="url(#SVGID_12_)">
		<defs>
			<rect id="SVGID_13_" x="-760" y="-505" width="1920" height="1080"/>
		</defs>
		<clipPath id="SVGID_14_">
			<use xlink:href="#SVGID_13_"  overflow="visible"/>
		</clipPath>
		<path clip-path="url(#SVGID_14_)" fill="#FFFFFF" d="M-50.926-372.544c-1.602-0.973-3.759-1.884-6.475-2.716
			c-2.715-0.836-5.638-1.25-8.772-1.25c-3.068,0-6.03,0.502-8.882,1.514c-2.852,1.004-5.374,2.469-7.571,4.385
			c-2.192,1.914-3.957,4.277-5.273,7.103c-1.325,2.817-1.985,6.074-1.985,9.763c0,3.622,0.66,6.844,1.985,9.661
			c1.316,2.821,3.081,5.207,5.273,7.157c2.197,1.954,4.754,3.433,7.681,4.441c2.918,1.008,5.986,1.515,9.19,1.515
			c3.341,0,6.281-0.3,8.829-0.89c2.536-0.594,4.75-1.408,6.625-2.46l-1.149,11.597c-1.946,0.979-4.173,1.691-6.686,2.145
			c-2.504,0.453-5.673,0.678-9.503,0.678c-4.243,0-8.481-0.717-12.689-2.139c-4.217-1.43-8.007-3.57-11.387-6.426
			c-3.375-2.852-6.131-6.404-8.249-10.652c-2.125-4.252-3.186-9.195-3.186-14.833c0-5.638,1.061-10.581,3.186-14.833
			c2.118-4.243,4.886-7.813,8.302-10.705c3.411-2.887,7.227-5.052,11.44-6.479c4.212-1.426,8.406-2.139,12.583-2.139
			c4.393,0,8.165,0.401,11.33,1.202c3.169,0.801,5.766,1.791,7.786,2.975L-50.926-372.544z"/>
		<polygon clip-path="url(#SVGID_14_)" fill="#FFFFFF" points="-38.704,-320.633 -38.704,-387.272 -25.542,-387.272 
			-25.542,-331.606 1.715,-331.606 1.715,-320.633 		"/>
		<rect x="9.449" y="-387.272" clip-path="url(#SVGID_14_)" fill="#FFFFFF" width="13.156" height="66.639"/>
		<path clip-path="url(#SVGID_14_)" fill="#FFFFFF" d="M99.064-320.633l-2.403-27.368c-0.142-2.016-0.3-4.23-0.471-6.629
			c-0.176-2.403-0.295-4.754-0.366-7.051h-0.211c-0.902,2.232-1.968,4.613-3.182,7.152c-1.219,2.544-2.35,4.824-3.394,6.845
			l-13.997,27.47h-5.123l-14.199-27.47c-1.048-2.021-2.144-4.27-3.293-6.739c-1.148-2.474-2.214-4.854-3.186-7.157h-0.207
			c-0.071,2.368-0.189,4.754-0.366,7.157c-0.171,2.403-0.334,4.542-0.475,6.422l-2.399,27.368H33.781l5.743-66.639h9.821
			l16.188,31.124c1.184,2.302,2.487,4.88,3.918,7.733c1.425,2.852,2.623,5.497,3.6,7.936h0.216c0.968-2.368,2.121-4.956,3.446-7.782
			c1.321-2.821,2.61-5.449,3.86-7.887l15.876-31.124h9.406l5.951,66.639H99.064z"/>
		<path clip-path="url(#SVGID_14_)" fill="#FFFFFF" d="M166.223-320.633l-6.369-16.088H136.35l-6.369,16.088h-12.642l27.369-67.374
			h7.417l27.263,67.374H166.223z M150.562-361.369c-0.352-0.977-0.757-2.108-1.206-3.398c-0.458-1.281-0.858-2.557-1.197-3.807
			h-0.212c-0.347,1.25-0.748,2.526-1.201,3.807c-0.453,1.29-0.858,2.421-1.202,3.398l-5.537,14.31h16.088L150.562-361.369z"/>
		<polygon clip-path="url(#SVGID_14_)" fill="#FFFFFF" points="207.376,-376.308 207.376,-320.634 194.216,-320.634 
			194.216,-376.308 173.956,-376.308 173.956,-387.271 227.641,-387.271 227.641,-376.308 		"/>
		<polygon clip-path="url(#SVGID_14_)" fill="#FFFFFF" points="234.327,-320.633 234.327,-387.272 271.506,-387.272 
			271.506,-376.307 247.377,-376.307 247.377,-359.591 267.434,-359.591 267.434,-348.521 247.377,-348.521 247.377,-331.606 
			274.852,-331.606 274.852,-320.633 		"/>
		<polygon clip-path="url(#SVGID_14_)" fill="#FFFFFF" points="348.594,-320.633 348.594,-348.415 318.515,-348.415 
			318.515,-320.633 305.35,-320.633 305.35,-387.272 318.515,-387.272 318.515,-359.7 348.594,-359.7 348.594,-387.272 
			361.755,-387.272 361.755,-320.633 		"/>
		<path clip-path="url(#SVGID_14_)" fill="#F59224" d="M442.809-354.058c0,5.365-1.008,10.202-3.028,14.52
			c-2.024,4.314-4.688,7.971-7.993,10.968c-3.306,2.994-7.1,5.291-11.387,6.89c-4.282,1.601-8.684,2.403-13.213,2.403
			c-4.525,0-8.927-0.802-13.214-2.403c-4.278-1.599-8.077-3.896-11.382-6.89c-3.306-2.997-5.969-6.654-7.994-10.968
			c-2.02-4.318-3.027-9.155-3.027-14.52c0-5.357,1.008-10.186,3.027-14.468c2.025-4.283,4.688-7.919,7.994-10.911
			c3.305-2.994,7.104-5.291,11.382-6.898c4.287-1.597,8.688-2.403,13.214-2.403c4.529,0,8.931,0.806,13.213,2.403
			c4.287,1.607,8.081,3.904,11.387,6.898c3.306,2.992,5.969,6.628,7.993,10.911C441.801-364.244,442.809-359.415,442.809-354.058
			 M429.437-353.847c0-3.622-0.642-6.857-1.933-9.719c-1.285-2.852-2.975-5.272-5.064-7.258c-2.092-1.985-4.455-3.517-7.1-4.595
			c-2.65-1.078-5.367-1.619-8.152-1.619c-2.781,0-5.52,0.527-8.2,1.566c-2.681,1.043-5.067,2.558-7.148,4.547
			c-2.091,1.985-3.768,4.419-5.018,7.307c-1.25,2.892-1.88,6.149-1.88,9.771c0,3.618,0.63,6.857,1.88,9.714
			c1.25,2.852,2.927,5.29,5.018,7.311c2.081,2.02,4.468,3.565,7.148,4.648c2.681,1.078,5.419,1.62,8.2,1.62
			c2.72,0,5.414-0.542,8.095-1.62c2.679-1.083,5.065-2.615,7.157-4.6c2.09-1.981,3.779-4.419,5.064-7.31
			C428.795-346.972,429.437-350.229,429.437-353.847"/>
		<path clip-path="url(#SVGID_14_)" fill="#FFFFFF" d="M515.61-320.633l-2.403-27.368c-0.141-2.016-0.295-4.23-0.472-6.629
			c-0.173-2.403-0.295-4.754-0.36-7.051h-0.207c-0.912,2.232-1.977,4.613-3.191,7.152c-1.215,2.544-2.351,4.824-3.394,6.845
			l-14.001,27.47h-5.115l-14.207-27.47c-1.045-2.021-2.14-4.27-3.293-6.739c-1.141-2.474-2.205-4.854-3.182-7.157h-0.207
			c-0.07,2.368-0.195,4.754-0.365,7.157c-0.177,2.403-0.33,4.542-0.472,6.422l-2.403,27.368H450.33l5.744-66.639h9.816
			l16.188,31.124c1.184,2.302,2.491,4.88,3.917,7.733c1.426,2.852,2.628,5.497,3.605,7.936h0.211
			c0.969-2.368,2.121-4.956,3.441-7.782c1.33-2.821,2.619-5.449,3.869-7.887L513-387.272h9.4l5.951,66.639H515.61z"/>
		<polygon clip-path="url(#SVGID_14_)" fill="#FFFFFF" points="538.383,-320.633 538.383,-387.272 575.566,-387.272 
			575.566,-376.307 551.438,-376.307 551.438,-359.591 571.496,-359.591 571.496,-348.521 551.438,-348.521 551.438,-331.606 
			578.908,-331.606 578.908,-320.633 		"/>
		<path clip-path="url(#SVGID_14_)" fill="#F59224" d="M-183.54-355.167c0-13.196,10.696-23.896,23.896-23.896
			c13.2,0,23.896,10.7,23.896,23.896c0,13.2-10.696,23.896-23.896,23.896C-172.844-331.271-183.54-341.967-183.54-355.167"/>
		<g opacity="0.8" clip-path="url(#SVGID_14_)">
			<g>
				<defs>
					<rect id="SVGID_15_" x="-208.232" y="-403.752" width="55.001" height="97.177"/>
				</defs>
				<clipPath id="SVGID_16_">
					<use xlink:href="#SVGID_15_"  overflow="visible"/>
				</clipPath>
				<path clip-path="url(#SVGID_16_)" fill="#FFFFFF" d="M-159.644-403.751c-26.836,0-48.589,21.749-48.589,48.585
					c0,26.835,21.753,48.592,48.589,48.592c0,0,6.413-22.725,6.413-48.592C-153.23-381.04-159.644-403.751-159.644-403.751"/>
			</g>
		</g>
		<g opacity="0.6" clip-path="url(#SVGID_14_)">
			<g>
				<defs>
					<rect id="SVGID_17_" x="-232.59" y="-428.1" width="72.946" height="145.875"/>
				</defs>
				<clipPath id="SVGID_18_">
					<use xlink:href="#SVGID_17_"  overflow="visible"/>
				</clipPath>
				<path clip-path="url(#SVGID_18_)" fill="#FFFFFF" d="M-159.644-428.104c-40.287,0-72.946,32.654-72.946,72.938
					c0,40.287,32.659,72.941,72.946,72.941c0,0-24.314-24.979-23.896-73.083C-183.118-403.413-159.644-428.104-159.644-428.104"/>
			</g>
		</g>
		<g opacity="0.4" clip-path="url(#SVGID_14_)">
			<g>
				<defs>
					<rect id="SVGID_19_" x="-256.283" y="-451.81" width="96.639" height="193.282"/>
				</defs>
				<clipPath id="SVGID_20_">
					<use xlink:href="#SVGID_19_"  overflow="visible"/>
				</clipPath>
				<path clip-path="url(#SVGID_20_)" fill="#FFFFFF" d="M-159.644-451.807c-53.372,0-96.64,43.271-96.64,96.64
					c0,53.377,43.268,96.639,96.64,96.639c0,0-48.359-41.968-48.315-96.639C-207.924-409.837-159.644-451.807-159.644-451.807"/>
			</g>
		</g>
		<path clip-path="url(#SVGID_14_)" fill="#FFFFFF" d="M615.175-320.1v-64.792h14.805l18.745,27.878
			c4.999,7.594,8.94,14.804,12.209,22.109l0.288-0.095c-0.961-8.652-1.058-16.535-1.058-25.86v-24.032h11.535v64.792h-13.17
			l-18.938-28.839c-4.71-7.499-9.518-15.381-13.073-22.88l-0.385,0.097c0.479,8.651,0.577,17.015,0.577,26.724v24.898H615.175z"/>
		<polygon clip-path="url(#SVGID_14_)" fill="#FFFFFF" points="725.826,-348.555 698.43,-348.555 698.43,-330.098 728.999,-330.098 
			728.999,-320.1 686.028,-320.1 686.028,-384.892 727.461,-384.892 727.461,-374.895 698.43,-374.895 698.43,-358.552 
			725.826,-358.552 		"/>
		<path clip-path="url(#SVGID_14_)" fill="#FFFFFF" d="M752.264-320.1l-17.207-64.792h13.266l6.826,29.801
			c1.826,7.978,3.557,16.534,4.71,22.397h0.192c1.152-6.343,2.979-14.323,5.095-22.59l7.498-29.608h13.843l6.825,30.474
			c1.635,7.69,3.076,14.996,4.134,21.436h0.192c1.153-6.633,2.979-14.131,4.902-22.206l7.595-29.704h12.689L803.502-320.1H790.14
			l-7.306-32.107c-1.73-7.595-2.98-13.363-3.846-20.188h-0.192c-1.058,6.729-2.403,12.593-4.518,20.188l-8.268,32.107H752.264z"/>
		<path clip-path="url(#SVGID_14_)" fill="#FFFFFF" d="M830.617-333.654c4.229,2.403,10.574,4.614,17.495,4.614
			c7.979,0,12.401-3.461,12.401-8.748c0-4.806-3.269-7.69-12.401-10.382c-11.92-3.556-19.322-9.036-19.322-19.13
			c0-10.766,9.517-18.745,24.226-18.745c7.979,0,13.554,1.634,17.495,3.46l-3.172,9.806c-2.596-1.25-7.69-3.364-14.612-3.364
			c-8.074,0-11.343,4.037-11.343,7.786c0,4.999,4.134,7.306,13.458,10.286c12.209,3.941,18.361,9.421,18.361,19.515
			c0,9.997-7.691,19.61-26.149,19.61c-7.497,0-15.283-2.115-19.32-4.614L830.617-333.654z"/>
	</g>
</g>
<g>
	<g>
		<path fill="#FFFFFF" d="M72.726,28.072c-0.567-0.345-1.332-0.667-2.293-0.962c-0.961-0.296-1.996-0.442-3.107-0.442
			c-1.086,0-2.135,0.178-3.146,0.536c-1.009,0.355-1.903,0.874-2.681,1.553c-0.776,0.678-1.402,1.515-1.867,2.516
			c-0.47,0.998-0.704,2.151-0.704,3.458c0,1.281,0.234,2.424,0.704,3.421c0.465,0.998,1.091,1.844,1.867,2.533
			c0.778,0.694,1.684,1.217,2.72,1.573c1.034,0.358,2.12,0.537,3.255,0.537c1.183,0,2.224-0.106,3.126-0.314
			c0.898-0.212,1.682-0.5,2.346-0.872l-0.407,4.108c-0.689,0.346-1.478,0.598-2.368,0.759c-0.888,0.16-2.01,0.239-3.366,0.239
			c-1.502,0-3.004-0.253-4.494-0.757c-1.493-0.507-2.836-1.265-4.033-2.275c-1.195-1.012-2.171-2.268-2.921-3.773
			c-0.753-1.506-1.129-3.256-1.129-5.253c0-1.996,0.376-3.747,1.129-5.252c0.75-1.503,1.73-2.767,2.94-3.792
			c1.207-1.022,2.559-1.789,4.051-2.294c1.491-0.506,2.977-0.758,4.456-0.758c1.556,0,2.891,0.142,4.012,0.426
			c1.123,0.283,2.042,0.633,2.758,1.053L72.726,28.072z"/>
		<polygon fill="#FFFFFF" points="77.054,46.456 77.054,22.855 81.716,22.855 81.716,42.57 91.368,42.57 91.368,46.456 		"/>
		<rect x="94.107" y="22.855" fill="#FFFFFF" width="4.659" height="23.601"/>
		<path fill="#FFFFFF" d="M125.844,46.456l-0.852-9.692c-0.05-0.715-0.106-1.499-0.167-2.348c-0.063-0.852-0.105-1.684-0.129-2.497
			h-0.075c-0.319,0.79-0.696,1.633-1.126,2.532c-0.432,0.901-0.833,1.709-1.202,2.424l-4.957,9.729h-1.814l-5.029-9.729
			c-0.371-0.715-0.759-1.512-1.166-2.387c-0.407-0.875-0.784-1.719-1.128-2.534h-0.074c-0.024,0.838-0.066,1.683-0.129,2.534
			c-0.061,0.852-0.118,1.609-0.168,2.275l-0.85,9.692h-4.253l2.034-23.601h3.478l5.732,11.022c0.419,0.815,0.881,1.728,1.388,2.739
			c0.505,1.009,0.929,1.946,1.275,2.811h0.076c0.344-0.839,0.752-1.756,1.221-2.756c0.468-1,0.924-1.931,1.367-2.794l5.622-11.022
			h3.331l2.108,23.601H125.844z"/>
		<path fill="#FFFFFF" d="M149.627,46.456l-2.256-5.698h-8.323l-2.255,5.698h-4.477l9.692-23.86h2.626l9.656,23.86H149.627z
			 M144.081,32.029c-0.124-0.346-0.268-0.747-0.427-1.204c-0.162-0.453-0.303-0.905-0.423-1.348h-0.075
			c-0.123,0.443-0.266,0.896-0.425,1.348c-0.161,0.457-0.304,0.858-0.426,1.204l-1.961,5.069h5.698L144.081,32.029z"/>
		<polygon fill="#FFFFFF" points="164.202,26.738 164.202,46.456 159.541,46.456 159.541,26.738 152.367,26.738 152.367,22.855 
			171.379,22.855 171.379,26.738 		"/>
		<polygon fill="#FFFFFF" points="173.746,46.456 173.746,22.855 186.913,22.855 186.913,26.739 178.368,26.739 178.368,32.659 
			185.47,32.659 185.47,36.579 178.368,36.579 178.368,42.57 188.098,42.57 188.098,46.456 		"/>
		<polygon fill="#FFFFFF" points="214.214,46.456 214.214,36.617 203.561,36.617 203.561,46.456 198.899,46.456 198.899,22.855 
			203.561,22.855 203.561,32.62 214.214,32.62 214.214,22.855 218.874,22.855 218.874,46.456 		"/>
		<path fill="#F59224" d="M247.578,34.618c0,1.9-0.356,3.613-1.072,5.143c-0.716,1.527-1.66,2.823-2.831,3.884
			c-1.17,1.061-2.513,1.874-4.031,2.44c-1.518,0.566-3.077,0.85-4.681,0.85c-1.602,0-3.16-0.283-4.68-0.85
			c-1.515-0.566-2.859-1.38-4.029-2.44c-1.171-1.061-2.115-2.356-2.832-3.884c-0.715-1.529-1.071-3.242-1.071-5.143
			c0-1.896,0.356-3.607,1.071-5.124c0.717-1.517,1.661-2.804,2.832-3.864c1.17-1.061,2.515-1.873,4.029-2.442
			c1.52-0.566,3.078-0.851,4.68-0.851c1.604,0,3.163,0.285,4.681,0.851c1.519,0.569,2.861,1.382,4.031,2.442
			c1.171,1.06,2.115,2.348,2.831,3.864C247.222,31.011,247.578,32.722,247.578,34.618 M242.843,34.693
			c0-1.283-0.227-2.429-0.685-3.442c-0.455-1.01-1.053-1.867-1.792-2.57c-0.741-0.703-1.578-1.245-2.516-1.627
			s-1.9-0.573-2.888-0.573c-0.984,0-1.953,0.187-2.903,0.554c-0.95,0.37-1.794,0.906-2.532,1.611
			c-0.74,0.703-1.333,1.565-1.776,2.587c-0.442,1.024-0.665,2.178-0.665,3.461c0,1.282,0.223,2.429,0.665,3.439
			c0.443,1.01,1.036,1.873,1.776,2.589c0.738,0.717,1.582,1.263,2.532,1.646c0.95,0.382,1.919,0.574,2.903,0.574
			c0.964,0,1.919-0.192,2.867-0.574c0.949-0.384,1.795-0.925,2.536-1.629c0.739-0.701,1.337-1.565,1.792-2.589
			C242.616,37.129,242.843,35.976,242.843,34.693"/>
		<path fill="#FFFFFF" d="M273.36,46.456l-0.852-9.692c-0.049-0.715-0.103-1.499-0.166-2.348c-0.062-0.852-0.104-1.684-0.128-2.497
			h-0.073c-0.323,0.79-0.7,1.633-1.13,2.532c-0.431,0.901-0.833,1.709-1.202,2.424l-4.958,9.729h-1.812l-5.031-9.729
			c-0.371-0.715-0.759-1.512-1.167-2.387c-0.402-0.875-0.781-1.719-1.127-2.534h-0.071c-0.025,0.838-0.07,1.683-0.13,2.534
			c-0.063,0.852-0.118,1.609-0.168,2.275l-0.852,9.692h-4.253l2.035-23.601h3.477l5.733,11.022c0.419,0.815,0.881,1.728,1.387,2.739
			c0.506,1.009,0.932,1.946,1.277,2.811h0.075c0.343-0.839,0.751-1.756,1.218-2.756c0.471-1,0.928-1.931,1.37-2.794l5.624-11.022
			h3.328l2.108,23.601H273.36z"/>
		<polygon fill="#FFFFFF" points="281.427,46.456 281.427,22.855 294.594,22.855 294.594,26.739 286.05,26.739 286.05,32.659 
			293.153,32.659 293.153,36.579 286.05,36.579 286.05,42.57 295.777,42.57 295.777,46.456 		"/>
		<path fill="#F59224" d="M25.761,34.226c0-4.673,3.789-8.463,8.463-8.463c4.675,0,8.462,3.79,8.462,8.463
			c0,4.675-3.788,8.462-8.462,8.462C29.55,42.688,25.761,38.9,25.761,34.226"/>
		<g opacity="0.8">
			<g>
				<defs>
					<rect id="SVGID_21_" x="17.017" y="17.02" width="19.478" height="34.415"/>
				</defs>
				<clipPath id="SVGID_22_">
					<use xlink:href="#SVGID_21_"  overflow="visible"/>
				</clipPath>
				<path clip-path="url(#SVGID_22_)" fill="#FFFFFF" d="M34.225,17.02c-9.504,0-17.208,7.703-17.208,17.206
					c0,9.504,7.703,17.209,17.208,17.209c0,0,2.271-8.047,2.271-17.209C36.495,25.063,34.225,17.02,34.225,17.02"/>
			</g>
		</g>
		<g opacity="0.6">
			<g>
				<defs>
					<rect id="SVGID_23_" x="8.391" y="8.396" width="25.833" height="51.661"/>
				</defs>
				<clipPath id="SVGID_24_">
					<use xlink:href="#SVGID_23_"  overflow="visible"/>
				</clipPath>
				<path clip-path="url(#SVGID_24_)" fill="#FFFFFF" d="M34.225,8.395c-14.268,0-25.834,11.564-25.834,25.831
					c0,14.267,11.566,25.832,25.834,25.832c0,0-8.611-8.846-8.463-25.882C25.911,17.139,34.225,8.395,34.225,8.395"/>
			</g>
		</g>
		<g opacity="0.4">
			<g>
				<defs>
					<rect id="SVGID_25_" width="34.224" height="68.449"/>
				</defs>
				<clipPath id="SVGID_26_">
					<use xlink:href="#SVGID_25_"  overflow="visible"/>
				</clipPath>
				<path clip-path="url(#SVGID_26_)" fill="#FFFFFF" d="M34.225,0.001C15.323,0.001,0,15.326,0,34.226
					C0,53.13,15.323,68.449,34.225,68.449c0,0-17.127-14.863-17.111-34.224C17.126,14.864,34.225,0.001,34.225,0.001"/>
			</g>
		</g>
		<path fill="#FFFFFF" d="M308.621,46.645V23.699h5.242l6.64,9.873c1.77,2.689,3.165,5.242,4.322,7.831l0.103-0.034
			c-0.34-3.063-0.374-5.856-0.374-9.159v-8.511h4.086v22.946h-4.664l-6.707-10.214c-1.669-2.655-3.372-5.446-4.63-8.102
			l-0.137,0.034c0.171,3.063,0.204,6.026,0.204,9.464v8.817H308.621z"/>
		<polygon fill="#FFFFFF" points="347.809,36.567 338.104,36.567 338.104,43.104 348.932,43.104 348.932,46.645 333.714,46.645 
			333.714,23.699 348.386,23.699 348.386,27.239 338.104,27.239 338.104,33.027 347.809,33.027 		"/>
		<path fill="#FFFFFF" d="M357.171,46.645l-6.095-22.946h4.697l2.418,10.554c0.646,2.826,1.26,5.856,1.669,7.932h0.068
			c0.407-2.247,1.055-5.072,1.804-8l2.654-10.485h4.903l2.416,10.792c0.58,2.724,1.091,5.312,1.465,7.592h0.067
			c0.409-2.349,1.057-5.004,1.736-7.864l2.689-10.52h4.495l-6.844,22.946h-4.732l-2.587-11.371
			c-0.612-2.689-1.055-4.732-1.362-7.149h-0.066c-0.375,2.383-0.852,4.46-1.601,7.149l-2.929,11.371H357.171z"/>
		<path fill="#FFFFFF" d="M384.919,41.844c1.497,0.851,3.744,1.634,6.195,1.634c2.827,0,4.393-1.227,4.393-3.098
			c0-1.701-1.159-2.724-4.393-3.676c-4.221-1.26-6.843-3.2-6.843-6.775c0-3.813,3.371-6.639,8.579-6.639
			c2.825,0,4.8,0.579,6.195,1.226l-1.123,3.473c-0.918-0.443-2.724-1.191-5.174-1.191c-2.859,0-4.018,1.43-4.018,2.757
			c0,1.771,1.464,2.588,4.767,3.643c4.324,1.396,6.502,3.336,6.502,6.912c0,3.54-2.724,6.944-9.261,6.944
			c-2.655,0-5.412-0.749-6.843-1.635L384.919,41.844z"/>
	</g>
</g>
</svg>
